<svg xmlns="http://www.w3.org/2000/svg" width="512" height="512" viewBox="0 0 512 512">
  <g fill="none" transform="translate(31 74)">
    <path fill="#FF5364" d="M31.0344828,124.137931 L7.75862069,124.137931 C3.4736528,124.137931 0,127.611584 0,131.896552 L0,186.206897 C0,190.491864 3.4736528,193.965517 7.75862069,193.965517 L27.1551724,193.965517 L31.0344828,124.137931 Z"/>
    <polygon fill="#DF4D60" points="117.466 259.526 15.517 193.966 31.034 124.138 69.828 54.31 179.845 133.06"/>
    <polygon fill="#DF4D60" points="324.698 269.224 372.414 364.655 418.966 232.759 363.181 197.845"/>
    <polygon fill="#FF5364" points="403.448 23.276 426.724 23.276 450 0 450 62.069 413.302 71.224"/>
    <polygon fill="#DF4D60" points="405.698 87.595 418.966 69.828 403.448 23.276 372.414 54.31 372.414 88.759"/>
    <path fill="#FF5364" d="M193.965517,31.0344828 L349.137931,31.0344828 L446.663793,128.560345 C448.696116,130.58844 449.442276,133.573083 448.603448,136.318966 L418.965517,232.758621 L77.5862069,364.655172 L162,142.137931 L193.965517,31.0344828 Z"/>
    <path fill="#FB7B76" d="M69.8275862,54.3103448 L93.1034483,31.0344828 L193.965517,31.0344828 L222.12931,136.784483 C222.767299,139.219809 222.184016,141.813295 220.564774,143.740962 C218.945534,145.66863 216.491654,146.690815 213.982759,146.482759 L135.465517,139.655172 C133.2032,139.474246 131.13353,138.311829 129.801724,136.474138 L69.8275862,54.3103448 Z"/>
  </g>
</svg>
