<svg xmlns="http://www.w3.org/2000/svg" width="512" height="512" viewBox="0 0 512 512">
  <g fill="none" transform="translate(31 54)">
    <path fill="#E64C3C" d="M297.853448,183.956897 L450,154.163793 L394.603448,111.413793 L450,69.8275862 L302.586207,38.7931034 L182.715517,73.0086207 L85.3448276,0 L0,69.8275862 L85.3448276,62.0689655 C85.3448276,110.948276 83.7931034,77.5862069 93.1034483,217.241379 L170.689655,240.517241 L325.862069,403.448276 L263.793103,256.034483 L273.413793,202.267241 L297.853448,183.956897 Z"/>
    <polygon fill="#F0C419" points="85.345 0 85.345 62.069 0 69.828"/>
    <polygon fill="#E64C3C" points="182.716 73.009 85.345 100.862 85.345 0"/>
    <polygon fill="#C03A2B" points="302.586 38.793 263.793 256.034 248.276 217.241 170.69 240.517 85.345 100.862"/>
    <polygon fill="#E64C3C" points="450 69.828 273.414 202.267 302.586 38.793"/>
    <polygon fill="#C03A2B" points="450 154.164 297.853 183.957 394.603 111.414"/>
    <g fill="#E64C3C" transform="translate(85.345 100.862)">
      <polygon points="240.517 302.586 85.345 139.655 162.931 116.379"/>
      <polygon points="85.345 139.655 7.759 116.379 0 0"/>
    </g>
  </g>
</svg>
