<svg xmlns="http://www.w3.org/2000/svg" width="512" height="512" viewBox="0 0 512 512">
  <g fill="none" transform="translate(128 31)">
    <polygon fill="#F0C419" points="215.738 414.72 256 449.939 139.636 449.939"/>
    <path fill="#ECF0F1" d="M157.246061,78.9721212 L253.517576,168.339394 C255.113936,169.819807 256.014732,171.902898 256.000178,174.08 L256.000178,383.534545 C256.012661,386.157108 254.699408,388.608514 252.509091,390.050909 L162.909091,449.939394 L54.3030303,449.939394 L54.3030303,116.363636 L157.246061,78.9721212 Z"/>
    <polygon fill="#35495E" points="124.121 224.97 62.061 116.364 0 170.667 54.303 449.939 108.606 395.636"/>
    <polygon fill="#F0C419" points="147.394 15.515 248.242 23.273 186.182 62.061"/>
    <polygon fill="#2C3E50" points="124.121 302.545 124.121 224.97 85.333 271.515"/>
    <g fill="#3F5C6C">
      <path d="M108.606061 395.636364L85.3333333 271.515152 155.772121 313.793939C157.609367 314.907403 158.902612 316.732893 159.343706 318.835442 159.7848 320.937991 159.334244 323.129314 158.099394 324.887273L108.606061 395.636364zM0 170.666667L186.181818 62.0606061 149.643636 3.64606061C148.237776 1.39650032 145.779915.0212688679 143.127273-1.72252784e-15L75.0157576-1.72252784e-15C71.8840096.0156326788 69.0688279 1.91282029 67.8787879 4.80969697L0 170.666667z"/>
    </g>
  </g>
</svg>
