<svg xmlns="http://www.w3.org/2000/svg" width="512" height="512" viewBox="0 0 512 512">
  <g fill="none" transform="translate(37 31)">
    <polygon fill="#FF5364" points="129.053 108.409 260.693 15.487 206.488 0 74.849 69.691"/>
    <path fill="#BDC3C7" d="M206.488203,123.895947 L125.258923,254.451301 L98.0792498,201.330913 L9.02903811,157.502722 C4.57348844,155.130118 1.55383625,150.734933 0.937210463,145.724848 C0.320584673,140.714764 2.18437107,135.71854 5.93163944,132.336358 L74.8487598,69.6914701 C153.909861,103.607985 123.710224,91.2183908 206.488203,123.895947 Z"/>
    <g fill="#95A5A5" transform="translate(82.592 116.152)">
      <path d="M51.9588627,59.7023593 C18.661827,92.999395 20.984876,91.0635209 19.0490018,92.0701754 L15.4869933,85.1784634 L8.51784634,81.7713249 C9.36963097,79.9903206 7.12401694,82.5456745 40.9630974,48.7065941 C43.9994943,45.6701971 48.9224657,45.6701971 51.9588627,48.7065941 C54.9952596,51.742991 54.9952596,56.6659624 51.9588627,59.7023593 Z"/>
      <polygon points="116.152 201.331 0 240.048 100.665 0"/>
      <polygon points="193.587 332.97 54.204 332.97 139.383 240.048"/>
    </g>
    <polygon fill="#ECF0F1" points="374.135 268.544 400.076 247.792 438.793 278.766 438.793 325.227 369.102 348.457"/>
    <path fill="#BDC3C7" d="M276.179673,449.122807 L183.257713,325.22686 L183.257713,116.15245 L349.665457,176.629159 C352.13277,177.538712 353.969875,179.63826 354.54386,182.204477 L391.325469,343.966122 C392.029964,346.808179 391.071127,349.804544 388.84755,351.709619 L276.179673,449.122807 Z"/>
  </g>
</svg>
