<svg xmlns="http://www.w3.org/2000/svg" width="512" height="512" viewBox="0 0 512 512">
  <g fill="none" transform="translate(31 47)">
    <polygon fill="#7F8C8D" points="34.603 287.897 0 301.707 0 332.742 62.069 332.742"/>
    <polygon fill="#547580" points="434.483 224.121 450 317.225 380.172 317.225"/>
    <path fill="#7F8C8D" d="M292.655172,104.715921 L434.482759,224.121094 L396.931034,411.879714 C396.182532,415.550498 392.917972,418.162147 389.172414,418.088208 L307.551724,418.088208 C304.521432,418.09411 301.764096,416.336687 300.491379,413.586611 C272.482759,352.836611 289.551724,393.802128 217.241379,208.603852 L292.655172,104.715921 Z"/>
    <polygon fill="#95A5A5" points="69.828 185.328 93.103 309.466 69.828 332.742 46.552 332.742 15.517 216.362"/>
    <path fill="#95A5A5" d="M252,214.965921 L290.793103,265.396956 C293.387049,268.771414 294.481039,273.063222 293.818966,277.267645 L272.560345,411.56937 C271.945642,415.363784 268.645289,418.13608 264.801724,418.087263 L177.905172,418.087263 C173.851342,418.099603 170.470839,414.98954 170.146552,410.94868 L155.172414,200.845232 L252,214.965921 Z"/>
    <path fill="#BDC3C7" d="M301.887931,150.646956 C302.341043,152.965947 301.712711,155.365032 300.181034,157.164197 L229.112069,242.509025 C226.742617,245.372548 222.675259,246.15348 219.413793,244.371094 L139.655172,200.845232 L15.5172414,216.362473 L38.3275862,72.0521282 C38.6348051,70.0792514 39.6907848,68.3007593 41.2758621,67.086611 L152.534483,14.6383351 L196.603448,21.3107489 C198.261158,21.8902565 200.066429,21.8902565 201.724138,21.3107489 L263.793103,0.905576509 C265.86532,0.349100379 268.075464,0.67560975 269.898254,1.80750359 C271.721044,2.93939752 272.993715,4.77560366 273.413793,6.87971444 L301.887931,150.646956 Z"/>
    <g fill="#95A5A5" transform="translate(131.018 13.911)">
      <path d="M29.1978718 1.89116379L26.0944235 47.2790948C25.8087278 51.3506284 22.4173354 54.5046233 18.3358028 54.4946358 13.9463492 54.2460219 10.5286721 50.5891075 10.5771821 46.1928879L13.525458 4.21875 21.2840787.417025862 29.1978718 1.89116379zM24.1547683 78.856681C15.4651131 197.796336 16.3961476 188.641164 15.4651131 190.658405L8.63752694 186.934267.87890625 187.865302C.87890625 186.701509-.0521282328 193.373922 8.63752694 77.7704741 8.92322263 73.6989409 12.314615 70.5449459 16.3961476 70.5549331 20.7856012 70.803547 24.2032783 74.4604611 24.1547683 78.856681z"/>
    </g>
  </g>
</svg>
