<svg xmlns="http://www.w3.org/2000/svg" width="512" height="512" viewBox="0 0 512 512">
  <g fill="none" transform="translate(31 43)">
    <path fill="#F0C419" d="M70.9141274,0 L7.01261927,7.09141274 C3.00254402,7.53513906 -0.0244750656,10.9362841 -0.000147363728,14.9707602 L-0.000147363728,48.0640197 C-0.0203543244,52.1256505 3.05008525,55.53725 7.09141274,55.9433672 L101.013235,65.1622038 L70.9141274,0 Z"/>
    <polygon fill="#D25627" points="350.631 268.213 214.633 268.213 217.628 113.069 299.415 118.19"/>
    <g fill="#F29C1F" transform="translate(70.914)">
      <polygon points="378.209 425.485 260.018 267.898 255.527 246.702 307.295 149.708 338.812 204.863"/>
      <path d="M102.431517 110.310865L174.13358 45.7790089C175.882868 44.2243636 178.232717 43.5277716 180.546662 43.8779079 182.860605 44.2280441 184.899165 45.5886718 186.110188 47.5912588L228.501077 118.190212 165.466297 133.082179 102.431517 110.310865zM102.431517 110.310865C60.9861496 27.4201293 64.0590951 31.9901508 60.6709757 30.3354878L0-3.4991332e-15 7.87934749 170.036319C7.97071877 172.14929 8.90769847 174.136823 10.4795322 175.551862L96.4432133 252.848261 102.431517 110.310865z"/>
    </g>
    <polygon fill="#E57E25" points="378.209 149.708 330.933 267.898 299.415 118.19 338.812 126.07"/>
    <polygon fill="#E57E25" points="126.07 425.485 173.346 110.311 299.415 118.19"/>
  </g>
</svg>
