<svg xmlns="http://www.w3.org/2000/svg" width="512" height="512" viewBox="0 0 512 512">
  <g fill="none" transform="translate(31 31)">
    <path fill="#E64C3C" d="M431.844828,237.025862 C433.482776,234.472893 433.482776,231.199521 431.844828,228.646552 L421.681034,214.137931 L450,100.862069 L372.413793,0 L377.301724,38.7931034 L333.62069,38.7931034 L382.5,80.6896552 L386.844828,115.448276 L358.37069,122.043103 L351.465517,111.956897 C350.002819,109.848254 347.592065,108.599309 345.025862,108.62069 L310.344828,108.62069 L271.551724,62.0689655 L271.551724,108.62069 L178.448276,108.62069 L178.448276,62.0689655 L139.655172,108.62069 L104.974138,108.62069 C102.407935,108.599309 99.9971806,109.848254 98.5344828,111.956897 L91.6293103,122.043103 L63.1551724,115.448276 L67.5,80.6896552 L116.37931,38.7931034 L72.7758621,38.7931034 L77.5862069,0 L-5.68434189e-14,100.862069 L28.3189655,214.137931 L18.387931,228.646552 C16.7499829,231.199521 16.7499829,234.472893 18.387931,237.025862 L24.8275862,247.577586 L-5.68434189e-14,333.62069 L69.8275862,450 L85.7327586,347.663793 L99.3103448,369.931034 C101.482759,373.5 93.2586207,370.862069 222.672414,410.508621 C226.086207,411.517241 215.844828,413.534483 346.344828,373.267241 C350.146552,372.103448 349.603448,371.715517 364.267241,347.663793 L380.172414,450 L450,333.62069 L425.405172,247.577586 L431.844828,237.025862 Z"/>
    <path fill="#E64C3C" d="M431.844828,237.025862 C341.767241,381.491379 350.37931,372.025862 346.5,373.267241 C216.310345,413.37931 226.086207,411.206897 222.672414,410.508621 C93.1034483,370.862069 101.482759,373.422414 99.3103448,369.931034 L18.1551724,237.025862 C16.5172243,234.472893 16.5172243,231.199521 18.1551724,228.646552 L98.3017241,112.267241 C99.764422,110.158599 102.175176,108.909654 104.741379,108.930501 L345.025862,108.930501 C347.592065,108.909654 350.002819,110.158599 351.465517,112.267241 L431.612069,228.646552 C433.321677,231.153782 433.412617,234.427593 431.844828,237.025862 L431.844828,237.025862 Z"/>
    <polygon fill="#C03A2B" points="24.595 247.578 0 333.621 85.733 347.664"/>
    <polygon fill="#E64C3C" points="0 333.621 69.828 450 85.733 347.664"/>
    <polygon fill="#C03A2B" points="91.629 122.043 0 100.862 28.319 214.138"/>
    <polygon fill="#E64C3C" points="63.155 115.448 77.586 0 0 100.862"/>
    <polygon fill="#C03A2B" points="72.776 38.793 116.379 38.793 67.5 80.69"/>
    <polygon fill="#C03A2B" points="425.405 247.578 450 333.621 364.267 347.664"/>
    <polygon fill="#E64C3C" points="364.267 347.664 380.172 450 450 333.621"/>
    <polygon fill="#C03A2B" points="358.371 122.043 450 100.862 421.681 214.138"/>
    <polygon fill="#E64C3C" points="386.845 115.448 372.414 0 450 100.862"/>
    <g fill="#C03A2B" transform="translate(139.655 38.793)">
      <polygon points="242.845 41.897 193.966 0 237.647 0"/>
      <polygon points="0 69.828 38.793 23.276 38.793 69.828"/>
      <polygon points="170.69 69.828 131.897 23.276 131.897 69.828"/>
    </g>
    <path fill="#FB7B76" d="M232.758621 310.344828L232.758621 408.801724C224.068966 411.517241 226.086207 411.594828 217.241379 408.801724L217.241379 310.344828C217.241379 306.05986 220.715032 302.586207 225 302.586207 229.284967 302.586207 232.758621 306.05986 232.758621 310.344828zM225 287.068966C220.715032 287.068966 217.241379 283.595312 217.241379 279.310345L217.241379 271.551724C217.241379 267.266757 220.715032 263.793103 225 263.793103 229.284967 263.793103 232.758621 267.266757 232.758621 271.551724L232.758621 279.310345C232.758621 283.595312 229.284967 287.068966 225 287.068966z"/>
  </g>
</svg>
