<svg xmlns="http://www.w3.org/2000/svg" width="512" height="512" viewBox="0 0 512 512">
  <g fill="none" transform="translate(31 31)">
    <path fill="#26B99A" d="M441.37931,348.45735 L7.74349667,348.45735 L20.1330913,317.483364 L77.4349667,317.483364 C108.408953,255.53539 80.4549304,315.23775 224.561404,0 L371.68784,317.483364 L428.989716,317.483364 L441.37931,348.45735 Z"/>
    <polygon fill="#33907C" points="100.665 271.022 77.435 317.483 38.717 271.022"/>
    <polygon fill="#33907C" points="410.405 271.022 371.688 317.483 348.457 271.022"/>
    <polygon fill="#14A085" points="428.99 317.483 371.688 317.483 410.405 271.022"/>
    <polygon fill="#14A085" points="77.435 317.483 20.133 317.483 38.717 271.022"/>
    <polygon fill="#14A085" points="224.561 0 116.462 236.564 69.691 178.1"/>
    <polygon fill="#33907C" points="122.502 117.391 69.691 178.1 61.948 23.23"/>
    <polygon fill="#14A085" points="379.431 178.1 332.661 236.564 224.561 0"/>
    <polygon fill="#33907C" points="387.175 23.23 379.431 178.1 326.621 117.391"/>
    <polygon fill="#14A085" points="100.665 348.457 77.435 425.892 7.743 348.457"/>
    <polygon fill="#33907C" points="77.435 425.892 0 449.123 41.815 386.323"/>
    <polygon fill="#14A085" points="441.379 348.457 371.688 425.892 348.457 348.457"/>
    <g fill="#33907C" transform="translate(17.241 309.74)">
      <polygon points="431.881 139.383 354.446 116.152 390.067 76.583"/>
      <path d="M414.61343 14.9449486C412.058076 15.4869933 425.299456 15.4869933 222.807018 15.4869933 218.530403 15.4869933 215.063521 12.0201114 215.063521 7.74349667 215.063521 3.46688194 218.530403 0 222.807018 0L408.650938 0 414.61343 14.9449486zM199.576528 7.74349667C199.576528 12.0201114 196.109646 15.4869933 191.833031 15.4869933-10.6594071 15.4869933 2.58197217 15.4869933.0266182698 14.9449486L5.98911071 0 191.833031 0C196.109646 0 199.576528 3.46688194 199.576528 7.74349667z"/>
    </g>
  </g>
</svg>
