<svg xmlns="http://www.w3.org/2000/svg" width="512" height="512" viewBox="0 0 512 512">
  <g fill="none" transform="translate(31 70)">
    <polygon fill="#84B5CB" points="335.638 147.724 271.552 124.138 131.897 178.836 131.897 85.345 100.862 0 0 85.345 93.103 85.345 0 318.103 131.897 372.414 356.897 372.414 450 77.586"/>
    <polygon fill="#9FC9D3" points="131.897 85.345 0 85.345 100.862 0"/>
    <polygon fill="#84B5CB" points="131.897 85.345 131.897 372.414 0 318.103 93.103 85.345"/>
    <polygon fill="#2980BA" points="356.897 372.414 131.897 372.414 131.897 262.474 248.276 294.828 302.586 217.241"/>
    <polygon fill="#9FC9D3" points="302.586 217.241 248.276 294.828 131.897 262.474 131.897 217.241"/>
    <polygon fill="#3B97D3" points="418.966 178.448 356.897 372.414 302.586 217.241 131.897 217.241 131.897 178.836 271.552 124.138"/>
    <polygon fill="#2980BA" points="335.638 147.724 450 77.586 418.966 178.448"/>
  </g>
</svg>
