<svg xmlns="http://www.w3.org/2000/svg" width="512" height="512" viewBox="0 0 512 512">
  <g fill="none" transform="translate(66 31)">
    <path fill="#E57E25" d="M379.571664,426.049827 L364.078943,294.361699 L211.088323,187.229533 L263.376257,131.688128 L278.868978,0 L209.151733,77.4636049 L69.7172444,77.4636049 L0,0 L15.492721,131.688128 L139.434489,263.376257 L139.434489,418.303466 C139.434489,422.581663 142.902653,426.049827 147.180849,426.049827 L304.819285,426.049827 L294.361699,449.288908 L379.571664,426.049827 Z"/>
    <path fill="#D25627" d="M364.078943,294.361699 L304.819285,426.049827 L147.180849,426.049827 C142.902653,426.049827 139.434489,422.581663 139.434489,418.303466 L139.434489,263.376257 L211.088323,187.229533 L364.078943,294.361699 Z"/>
    <polygon fill="#E57E25" points="263.376 131.688 139.434 263.376 15.493 131.688 69.717 77.464 209.152 77.464"/>
    <polygon fill="#F29C1F" points="15.493 131.688 0 0 69.717 77.464"/>
    <polygon fill="#F29C1F" points="263.376 131.688 278.869 0 209.152 77.464"/>
    <polygon fill="#E57E25" points="379.572 426.05 294.362 449.289 364.079 294.362"/>
    <g fill="#3F5C6C" transform="translate(68.643 123.609)">
      <path d="M39.8060048 31.3182934C37.1722422 31.3182934 38.7989779 31.7056114 5.3347006 14.9734727 2.65416055 13.8572423.822970201 11.3356649.59097143 8.44128378.358972658 5.54690266 1.76513013 2.7658353 4.23364578 1.23688346 6.70216144-.292069163 9.81844278-.312115969 12.306425 1.18495108L43.291867 16.6776721C46.4691351 18.30528 48.1226663 21.8934701 47.2958058 25.3662851 46.4689446 28.8391001 43.375836 31.2971373 39.8060048 31.3182934L39.8060048 31.3182934zM101.776889 31.3182934C98.2070575 31.2971373 95.1139489 28.8391001 94.2870877 25.3662851 93.4602272 21.8934701 95.1137583 18.30528 98.2910265 16.6776721L129.276468 1.18495108C131.764451-.312115969 134.880732-.292069163 137.349247 1.23688346 139.817763 2.7658353 141.223921 5.54690266 140.991922 8.44128378 140.759923 11.3356649 138.928733 13.8572423 136.248193 14.9734727 102.783916 31.7056114 104.333188 31.3182934 101.776889 31.3182934L101.776889 31.3182934zM91.319302 117.922604L70.7914467 139.76734 50.2635914 117.922604C61.9605958 95.3806946 79.6222977 95.3806946 91.319302 117.922604z"/>
    </g>
  </g>
</svg>
