<svg xmlns="http://www.w3.org/2000/svg" width="512" height="512" viewBox="0 0 512 512">
  <g fill="none" transform="translate(31 46)">
    <path fill="#A56A43" d="M239.663793,148.529095 L217.241379,419.693643 L115.37069,419.693643 C111.47639,419.731216 108.157109,416.876635 107.612069,413.020474 L70.9913793,148.529095 L239.663793,148.529095 Z"/>
    <path fill="#805333" d="M263.793103,139.655172 L225,310.344828 L54.3103448,310.344828 C98.3793103,-4.42241379 89.3793103,52.2931034 100.862069,0 L147.413793,5.6637931 L148.034483,4.03448276 L263.793103,139.655172 Z M15.5172414,193.965517 L15.5172414,310.344828 L0,310.344828 L0,193.965517 C0,189.68055 3.47365319,186.206897 7.75862069,186.206897 C12.0435882,186.206897 15.5172414,189.68055 15.5172414,193.965517 Z M7.75862069,170.689655 C3.47365319,170.689655 0,167.216002 0,162.931034 L0,155.172414 C0,150.887446 3.47365319,147.413793 7.75862069,147.413793 C12.0435882,147.413793 15.5172414,150.887446 15.5172414,155.172414 L15.5172414,162.931034 C15.5172414,167.216002 12.0435882,170.689655 7.75862069,170.689655 Z" transform="translate(147.414 109.348)"/>
    <path fill="#CB8252" d="M257.508621,123.701509 C235.086207,154.735991 245.87069,139.83944 209.482759,189.727371 C206.797076,192.849409 202.89398,194.65954 198.775862,194.692888 L111.568966,194.692888 C107.450847,194.65954 103.547751,192.849409 100.862069,189.727371 L52.8362069,123.701509 C99.387931,-7.57435345 95.8189655,2.04633621 96.75,0.72737069 C222.594828,0.72737069 213.12931,0.261853448 214.215517,1.58081897 L257.508621,123.701509 Z"/>
    <path fill="#CF976A" d="M97.5258621,0.72737069 L35.4568966,171.417026 L0.931034483,74.6670259 C-1.48894316,67.6712386 1.36959719,59.9401862 7.75862069,56.2015086 L97.5258621,0.72737069 Z M309.413793,74.6670259 L274.887931,171.417026 C207.543103,-13.78125 218.25,15.5463362 212.818966,0.72737069 L302.974138,56.2015086 C309.21727,60.0593908 311.903992,67.7634859 309.413793,74.6670259 L309.413793,74.6670259 Z"/>
    <path fill="#35495E" d="M170.689655,144.494612 L161.068966,160.011853 C159.740733,162.164761 157.391735,163.475624 154.862069,163.475624 C152.332402,163.475624 149.983405,162.164761 148.655172,160.011853 L139.034483,144.494612 C137.513854,142.064946 137.456651,138.994838 138.885716,136.510213 C140.314782,134.025589 142.997283,132.531257 145.862069,132.623922 L164.482759,132.623922 C167.236332,132.754304 169.713947,134.335972 170.991265,136.778845 C172.268584,139.221716 172.153769,142.158903 170.689655,144.494612 Z"/>
    <polygon fill="#A56A43" points="450 256.762 403.448 179.176 372.414 419.693"/>
  </g>
</svg>
