<svg xmlns="http://www.w3.org/2000/svg" width="512" height="512" viewBox="0 0 512 512">
  <g fill="none" transform="translate(31 31)">
    <polygon fill="#CF976A" points="29.812 134.195 0 0 108.409 69.691"/>
    <polygon fill="#CF976A" points="185.844 69.691 294.253 0 264.44 134.195"/>
    <polygon fill="#A56A43" points="332.97 394.918 449.123 255.535 371.688 449.123"/>
    <polygon fill="#805333" points="254.296 185.999 340.714 294.253 371.688 449.123 209.771 449.123 201.331 185.999"/>
    <path fill="#A56A43" d="M238.886872,206.286751 L217.437387,442.076225 C217.075742,446.078558 213.712495,449.139112 209.69389,449.122872 L84.4815487,449.122872 C80.4629434,449.139112 77.0996964,446.078558 76.738052,442.076225 L55.3660012,206.286751 L238.886872,206.286751 Z"/>
    <path fill="#CB8252" d="M209.07441,54.2044767 L275.436177,149.991531 C277.406082,152.863817 277.215964,156.697849 274.971567,159.361162 L209.07441,245.004235 C207.600385,246.773934 205.415083,247.795634 203.111918,247.791904 L91.1409558,247.791904 C88.8377906,247.795634 86.6524883,246.773934 85.1784634,245.004235 L19.2813067,159.361162 C17.036909,156.697849 16.8467918,152.863817 18.8166969,149.991531 L85.1784634,54.2044767 L209.07441,54.2044767 Z"/>
    <path fill="#FB7B76" d="M140.931639,205.357532 L133.188143,192.967937 C129.393829,186.850575 133.188143,178.100423 139.38294,178.100423 L154.869933,178.100423 C161.219601,178.100423 164.859044,186.850575 161.064731,192.967937 L153.321234,205.357532 C152.089162,207.630178 149.711572,209.045721 147.126437,209.045721 C144.541301,209.045721 142.163712,207.630178 140.931639,205.357532 L140.931639,205.357532 Z"/>
    <g fill="#805333" transform="translate(139.383 286.51)">
      <path d="M15.4869933 46.46098L15.4869933 162.61343 0 162.61343 0 46.46098C0 42.1843653 3.46688194 38.7174834 7.74349667 38.7174834 12.0201114 38.7174834 15.4869933 42.1843653 15.4869933 46.46098zM7.74349667 23.23049C3.46688194 23.23049 0 19.7636081 0 15.4869933L0 7.74349667C0 3.46688194 3.46688194 0 7.74349667 0 12.0201114 0 15.4869933 3.46688194 15.4869933 7.74349667L15.4869933 15.4869933C15.4869933 19.7636081 12.0201114 23.23049 7.74349667 23.23049z"/>
    </g>
  </g>
</svg>
