<svg xmlns="http://www.w3.org/2000/svg" width="512" height="512" viewBox="0 0 512 512">
  <g fill="none" transform="translate(31 93)">
    <path fill="#894B9D" d="M176.431034 237.258621L141.517241 314.068966C140.385649 316.557795 138.027659 318.267338 135.310345 318.568966L75.5689655 325.241379C72.2519926 325.514362 69.1304056 323.641411 67.8103448 320.586207L47.7931034 274.5C47.0171016 272.611075 47.0171016 270.492373 47.7931034 268.603448L77.5862069 193.965517 176.431034 237.258621zM372.413793 193.965517L402.284483 268.603448C403.060484 270.492373 403.060484 272.611075 402.284483 274.5L382.5 320.586207C381.179939 323.641411 378.058353 325.514362 374.741379 325.241379L315 318.568966C312.282686 318.267338 309.924696 316.557795 308.793103 314.068966L273.87931 237.258621 372.413793 193.965517z"/>
    <path fill="#955BA5" d="M193.965517 147.413793C153.232759 66.0258621 156.258621 70.2931034 152.689655 68.6637931L-.0000260775768 0-.0000260775768 172.862069C-.0086102069 176.197623 2.11568493 179.165389 5.27586207 180.232759L186.206897 240.517241 193.965517 147.413793zM256.034483 147.413793C296.767241 66.0258621 293.741379 70.2931034 297.310345 68.6637931L450.000026 0 450.000026 172.862069C450.008611 176.197623 447.884315 179.165389 444.724138 180.232759L263.793103 240.517241 256.034483 147.413793z"/>
    <path fill="#3F5C6C" d="M263.793103,127.862069 L263.793103,259.758621 C263.78222,262.119352 262.697101,264.346701 260.844828,265.810345 L229.810345,290.637931 C226.990514,292.866188 223.009486,292.866188 220.189655,290.637931 L189.155172,265.810345 C187.302899,264.346701 186.21778,262.119352 186.206897,259.758621 L186.206897,127.862069 C186.21778,125.501338 187.302899,123.273988 189.155172,121.810345 L220.189655,96.9827586 C223.009486,94.7545014 226.990514,94.7545014 229.810345,96.9827586 L260.844828,121.810345 C262.697101,123.273988 263.78222,125.501338 263.793103,127.862069 Z"/>
    <g fill="#35495E" transform="translate(217.241 94.861)">
      <path d="M15.5172414 4.44908405L15.5172414 114.621498C15.5172414 118.906465 12.0435882 122.380119 7.75862069 122.380119 3.47365319 122.380119 0 118.906465 0 114.621498L0 4.44908405 2.94827586 2.12149784C5.76810621-.106759397 9.74913517-.106759397 12.5689655 2.12149784L15.5172414 4.44908405zM15.5172414 145.655981L15.5172414 193.759429 12.5689655 196.087015C9.74913517 198.315272 5.76810621 198.315272 2.94827586 196.087015L2.49800181e-14 193.759429 2.49800181e-14 145.655981C2.49800181e-14 141.371013 3.47365319 137.89736 7.75862069 137.89736 12.0435882 137.89736 15.5172414 141.371013 15.5172414 145.655981L15.5172414 145.655981z"/>
    </g>
  </g>
</svg>
