<svg xmlns="http://www.w3.org/2000/svg" width="512" height="512" viewBox="0 0 512 512">
  <g fill="none" transform="translate(31 104)">
    <polygon fill="#FF5364" points="310.345 263.793 450 209.483 333.621 302.586"/>
    <polygon fill="#ECF0F1" points="143.69 75.647 0 0 69.828 287.069 100.862 294.828"/>
    <path fill="#FF5364" d="M39.4913793,20.7931034 C32.9509272,31.8118106 22.8945674,40.3105277 10.9396552,44.9224138 L0,0 L39.4913793,20.7931034 Z"/>
    <path fill="#95A5A5" d="M139.655172,77.5862069 L100.862069,170.689655 L100.862069,294.827586 C100.862069,299.112554 104.335722,302.586207 108.62069,302.586207 L333.62069,302.586207 L295.681034,166.112069 C295.127535,164.097396 293.784882,162.391108 291.956897,161.37931 L139.655172,77.5862069 Z"/>
    <polygon fill="#BDC3C7" points="100.862 170.69 155.172 155.172 139.655 77.586"/>
    <path fill="#FF5364" d="M155.172414,155.172414 C155.172414,155.172414 225,131.896552 232.758621,77.5862069 C232.758621,77.5862069 201.724138,46.5517241 139.655172,77.5862069 L155.172414,155.172414 Z"/>
  </g>
</svg>
